<svg width="41" height="39" viewBox="0 0 41 39" fill="none" xmlns="http://www.w3.org/2000/svg">
<g clip-path="url(#clip0_1849_433)">
<path d="M41 16.6078C41 7.45129 31.8032 0 20.499 0C9.19492 0 0 7.45129 0 16.6078C0 24.8178 7.29298 31.6924 17.1443 32.9934C17.8122 33.1371 18.7199 33.4321 18.9502 34.0031C19.1575 34.5204 19.0846 35.3309 19.0174 35.8539C19.0174 35.8539 18.7775 37.2986 18.7257 37.6052C18.6355 38.1225 18.3131 39.6284 20.501 38.7088C22.6889 37.7891 32.306 31.769 36.6069 26.8277C39.5779 23.5744 41.0019 20.275 41.0019 16.6097L41 16.6078Z" fill="white"/>
<path d="M34.1791 21.8957C34.396 21.8957 34.5707 21.7214 34.5707 21.5049V20.0525C34.5707 19.8379 34.3941 19.6617 34.1791 19.6617H30.2659V18.1538H34.1791C34.396 18.1538 34.5707 17.9794 34.5707 17.7629V16.3125C34.5707 16.0979 34.3941 15.9217 34.1791 15.9217H30.2659V14.4138H34.1791C34.396 14.4138 34.5707 14.2394 34.5707 14.0229V12.5725C34.5707 12.3579 34.3941 12.1816 34.1791 12.1816H28.4196C28.2027 12.1816 28.0281 12.356 28.0281 12.5725V12.5802V21.4972V21.5049C28.0281 21.7214 28.2027 21.8957 28.4196 21.8957H34.1791Z" fill="#4CC764"/>
<path d="M12.876 21.8957C13.0928 21.8957 13.2675 21.7214 13.2675 21.5049V20.0525C13.2675 19.8379 13.0909 19.6617 12.876 19.6617H8.96271V12.5725C8.96271 12.3579 8.78614 12.1816 8.57119 12.1816H7.11643C6.89956 12.1816 6.72491 12.356 6.72491 12.5725V21.4972V21.5049C6.72491 21.7214 6.89956 21.8957 7.11643 21.8957H12.876Z" fill="#4CC764"/>
<path d="M16.342 12.1816H14.8892C14.673 12.1816 14.4977 12.3566 14.4977 12.5725V21.5029C14.4977 21.7188 14.673 21.8938 14.8892 21.8938H16.342C16.5583 21.8938 16.7336 21.7188 16.7336 21.5029V12.5725C16.7336 12.3566 16.5583 12.1816 16.342 12.1816Z" fill="#4CC764"/>
<path d="M26.2394 12.1816H24.7847C24.5678 12.1816 24.3931 12.356 24.3931 12.5725V17.8779L20.2995 12.3598C20.2899 12.3464 20.2784 12.333 20.2688 12.3196C20.2688 12.3196 20.2688 12.3196 20.2668 12.3177C20.2592 12.31 20.2515 12.3004 20.2438 12.2928C20.2419 12.2909 20.2381 12.2889 20.2361 12.287C20.2285 12.2813 20.2227 12.2755 20.215 12.2698C20.2112 12.2679 20.2074 12.264 20.2035 12.2621C20.1978 12.2564 20.1901 12.2525 20.1824 12.2487C20.1786 12.2468 20.1747 12.243 20.1709 12.241C20.1632 12.2372 20.1575 12.2334 20.1498 12.2295C20.1459 12.2276 20.1421 12.2257 20.1383 12.2238C20.1306 12.22 20.1229 12.2161 20.1152 12.2142C20.1114 12.2142 20.1076 12.2104 20.1018 12.2104C20.0941 12.2085 20.0864 12.2046 20.0788 12.2027C20.0749 12.2027 20.0692 12.2008 20.0653 12.1989C20.0577 12.1989 20.05 12.1951 20.0423 12.1931C20.0365 12.1931 20.0308 12.1931 20.025 12.1912C20.0173 12.1912 20.0116 12.1893 20.0039 12.1893C19.9962 12.1893 19.9905 12.1893 19.9828 12.1893C19.979 12.1893 19.9732 12.1893 19.9694 12.1893H18.5242C18.3073 12.1893 18.1327 12.3637 18.1327 12.5802V21.5125C18.1327 21.729 18.3073 21.9034 18.5242 21.9034H19.979C20.1958 21.9034 20.3705 21.729 20.3705 21.5125V16.2091L24.468 21.7348C24.4968 21.775 24.5313 21.8076 24.5697 21.8325C24.5697 21.8325 24.5735 21.8344 24.5735 21.8363C24.5812 21.8421 24.5889 21.8459 24.5985 21.8516C24.6023 21.8536 24.6062 21.8555 24.61 21.8574C24.6158 21.8612 24.6234 21.8631 24.6292 21.867C24.635 21.8708 24.6426 21.8727 24.6484 21.8746C24.6522 21.8746 24.6561 21.8785 24.6599 21.8785C24.6695 21.8823 24.6772 21.8842 24.6868 21.8861C24.6868 21.8861 24.6906 21.8861 24.6925 21.8861C24.7252 21.8938 24.7597 21.8995 24.7943 21.8995H26.2394C26.4563 21.8995 26.6309 21.7252 26.6309 21.5087V12.5763C26.6309 12.3598 26.4563 12.1855 26.2394 12.1855V12.1816Z" fill="#4CC764"/>
</g>
<defs>
<clipPath id="clip0_1849_433">
<rect width="41" height="39" fill="white"/>
</clipPath>
</defs>
</svg>
